<svg id="Capa_1" enable-background="new 0 0 511.684 511.684" height="512" viewBox="0 0 511.684 511.684" width="512" xmlns="http://www.w3.org/2000/svg"><g><path d="m96.413 142.276h-83.955c-2.738 0-4.958-2.22-4.958-4.958v-53.011c0-24.553 19.904-44.456 44.456-44.456 24.553 0 44.456 19.904 44.456 44.456v57.969z" fill="#f9f6f9"/><path d="m193.305 39.851h-141.348c24.553 0 44.456 19.904 44.456 44.456v343.069c0 24.553 19.904 44.456 44.456 44.456 24.553 0 44.456-19.904 44.456-44.456v-38.257c0-24.553 19.904-44.456 44.456-44.456 2.724 0 5.39.245 7.979.715v-261.071c.001-24.552-19.903-44.456-44.455-44.456z" fill="#f1eaf9"/><path d="m274.239 427.376v-38.257c0-24.553-19.904-44.456-44.456-44.456-24.553 0-44.456 19.904-44.456 44.456v38.257c0 24.495-19.81 44.362-44.283 44.455-.057.001-.115.001-.173.001h-.001 141.348c6.5 0 12.674-1.395 18.239-3.902-15.458-6.961-26.218-22.501-26.218-40.554z" fill="#f9f6f9"/><path d="m367.855 427.376c-2.544 0-4.672 1.928-4.924 4.46-2.237 22.458-21.188 39.997-44.236 39.997h141.348c22.636 0 41.32-16.917 44.1-38.798.38-2.992-1.896-5.659-4.912-5.659z" fill="#f9f6f9"/><path d="m274.239 389.119v38.257c0 24.553 19.904 44.456 44.456 44.456 23.047 0 41.998-17.538 44.236-39.997.252-2.532 2.373-4.46 4.917-4.46h47.739v-38.257c0-24.553-19.904-44.456-44.456-44.456h-141.349c24.553.001 44.457 19.905 44.457 44.457z" fill="#f1eaf9"/><path d="m193.305 39.851h-2.87c4.63 7.016 7.326 15.421 7.326 24.456v252.6c0 4.339-3.558 7.763-7.897 7.755-.027 0-.055 0-.082 0-24.553 0-44.456 19.904-44.456 44.456v38.257c0 23.608-18.402 42.918-41.645 44.369 7.944 12.099 21.633 20.088 37.188 20.088 24.553 0 44.456-19.904 44.456-44.456v-38.257c0-24.553 19.904-44.456 44.456-44.456 2.724 0 5.39.245 7.979.715v-261.071c.001-24.552-19.903-44.456-44.455-44.456z" fill="#dddaec"/><path d="m371.131 344.663h-2.87c4.63 7.016 7.326 15.421 7.326 24.456v7.82c0 16.81-13.628 30.437-30.438 30.437h-17.301c-2.544 0-4.665 1.928-4.917 4.46-2.145 21.538-19.663 38.55-41.424 39.909 7.944 12.099 21.633 20.088 37.188 20.088 23.047 0 41.998-17.538 44.235-39.997.252-2.532 2.373-4.46 4.917-4.46h47.739v-38.257c.001-24.552-19.903-44.456-44.455-44.456z" fill="#dddaec"/><path d="m12.458 149.776h76.455v19.137c0 4.142 3.358 7.5 7.5 7.5s7.5-3.358 7.5-7.5v-84.606c0-14.443-5.925-27.53-15.471-36.956h104.863c20.378 0 36.957 16.579 36.957 36.956v252.856h-.479c-4.105 0-8.1.479-11.933 1.383 1.483-1.37 2.412-3.331 2.412-5.509 0-4.142-3.358-7.5-7.5-7.5h-22.061c-4.142 0-7.5 3.358-7.5 7.5s3.358 7.5 7.5 7.5h20.658c-7.6 2.892-14.352 7.518-19.77 13.394h-.889c-4.142 0-7.5 3.358-7.5 7.5 0 1.165.266 2.268.739 3.251-3.901 7.288-6.114 15.609-6.114 24.438v38.257c0 20.378-16.579 36.957-36.956 36.957-20.378 0-36.957-16.579-36.957-36.957v-223.464c0-4.142-3.358-7.5-7.5-7.5s-7.5 3.358-7.5 7.5v223.463c0 28.649 23.308 51.957 51.957 51.957h141.348c6.306 0 12.431-1.108 18.254-3.298 5.673 2.132 11.815 3.298 18.224 3.298h86.03c4.142 0 7.5-3.358 7.5-7.5s-3.358-7.5-7.5-7.5h-49.409c7.783-7.709 13.14-17.912 14.799-29.457h126.125c-3.494 16.978-18.583 29.457-36.197 29.457h-20.318c-4.142 0-7.5 3.358-7.5 7.5s3.358 7.5 7.5 7.5h20.318c26.098 0 48.256-19.498 51.54-45.352.456-3.586-.647-7.191-3.027-9.893-2.358-2.677-5.757-4.212-9.325-4.212h-76.144v-30.757c0-28.648-23.308-51.956-51.956-51.956h-49.665c-4.142 0-7.5 3.358-7.5 7.5s3.358 7.5 7.5 7.5h49.665c20.377 0 36.956 16.579 36.956 36.956v30.757h-40.232c-6.424 0-11.75 4.822-12.387 11.217-1.888 18.95-17.696 33.24-36.772 33.24-20.378 0-36.957-16.579-36.957-36.957v-38.257c0-14.443-5.925-27.53-15.471-36.956h20.198c4.142 0 7.5-3.358 7.5-7.5s-3.358-7.5-7.5-7.5h-41.205v-252.856c0-28.648-23.308-51.956-51.957-51.956h-141.347c-28.649 0-51.957 23.308-51.957 51.956v53.011c0 6.869 5.589 12.458 12.458 12.458zm254.281 239.343v38.257c0 14.444 5.925 27.53 15.471 36.957h-104.856c9.547-9.426 15.471-22.512 15.471-36.957v-38.257c0-20.377 16.579-36.956 36.957-36.956s36.957 16.579 36.957 36.956zm-251.739-304.812c0-20.377 16.579-36.956 36.957-36.956s36.956 16.579 36.956 36.956v50.469h-73.913z"/><path d="m167.087 77.66c-4.142 0-7.5 3.358-7.5 7.5v2.171c-8.809 2.149-15.366 10.108-15.366 19.569 0 11.105 9.035 20.14 20.14 20.14h5.453c2.834 0 5.14 2.306 5.14 5.14s-2.306 5.141-5.14 5.141h-5.453c-2.137 0-4.018-1.286-4.794-3.275-1.504-3.859-5.852-5.768-9.712-4.264-3.859 1.504-5.768 5.853-4.264 9.712 2.443 6.266 7.686 10.749 13.996 12.264v2.163c0 4.142 3.358 7.5 7.5 7.5s7.5-3.358 7.5-7.5v-2.171c8.809-2.149 15.367-10.108 15.367-19.569 0-11.105-9.035-20.14-20.14-20.14h-5.453c-2.834 0-5.14-2.306-5.14-5.14s2.306-5.141 5.14-5.141h5.453c2.136 0 4.018 1.286 4.793 3.275 1.504 3.859 5.852 5.771 9.712 4.264 3.859-1.504 5.768-5.853 4.264-9.712-2.443-6.266-7.686-10.749-13.996-12.264v-2.163c0-4.142-3.358-7.5-7.5-7.5z"/><path d="m212.761 183.567h-22.061c-4.142 0-7.5 3.358-7.5 7.5s3.358 7.5 7.5 7.5h22.061c4.142 0 7.5-3.358 7.5-7.5s-3.358-7.5-7.5-7.5z"/><path d="m113.913 191.067c0 4.142 3.358 7.5 7.5 7.5h44.288c4.142 0 7.5-3.358 7.5-7.5s-3.358-7.5-7.5-7.5h-44.288c-4.142 0-7.5 3.358-7.5 7.5z"/><path d="m212.761 211.961h-22.061c-4.142 0-7.5 3.358-7.5 7.5s3.358 7.5 7.5 7.5h22.061c4.142 0 7.5-3.358 7.5-7.5s-3.358-7.5-7.5-7.5z"/><path d="m121.413 226.961h44.288c4.142 0 7.5-3.358 7.5-7.5s-3.358-7.5-7.5-7.5h-44.288c-4.142 0-7.5 3.358-7.5 7.5s3.358 7.5 7.5 7.5z"/><path d="m212.761 240.355h-22.061c-4.142 0-7.5 3.358-7.5 7.5s3.358 7.5 7.5 7.5h22.061c4.142 0 7.5-3.358 7.5-7.5s-3.358-7.5-7.5-7.5z"/><path d="m121.413 255.355h44.288c4.142 0 7.5-3.358 7.5-7.5s-3.358-7.5-7.5-7.5h-44.288c-4.142 0-7.5 3.358-7.5 7.5s3.358 7.5 7.5 7.5z"/><path d="m212.761 268.749h-22.061c-4.142 0-7.5 3.358-7.5 7.5s3.358 7.5 7.5 7.5h22.061c4.142 0 7.5-3.358 7.5-7.5s-3.358-7.5-7.5-7.5z"/><path d="m121.413 283.749h44.288c4.142 0 7.5-3.358 7.5-7.5s-3.358-7.5-7.5-7.5h-44.288c-4.142 0-7.5 3.358-7.5 7.5s3.358 7.5 7.5 7.5z"/><path d="m212.761 297.143h-22.061c-4.142 0-7.5 3.358-7.5 7.5s3.358 7.5 7.5 7.5h22.061c4.142 0 7.5-3.358 7.5-7.5s-3.358-7.5-7.5-7.5z"/><path d="m121.413 312.143h44.288c4.142 0 7.5-3.358 7.5-7.5s-3.358-7.5-7.5-7.5h-44.288c-4.142 0-7.5 3.358-7.5 7.5s3.358 7.5 7.5 7.5z"/><path d="m371.131 362.163h-5.377c-4.142 0-7.5 3.358-7.5 7.5s3.358 7.5 7.5 7.5h5.377c4.142 0 7.5-3.358 7.5-7.5s-3.358-7.5-7.5-7.5z"/><path d="m340.753 362.163h-44.288c-4.142 0-7.5 3.358-7.5 7.5s3.358 7.5 7.5 7.5h44.288c4.142 0 7.5-3.358 7.5-7.5s-3.357-7.5-7.5-7.5z"/><path d="m362.244 398.057c0 4.142 3.358 7.5 7.5 7.5h20.843c4.142 0 7.5-3.358 7.5-7.5s-3.358-7.5-7.5-7.5h-20.843c-4.142 0-7.5 3.358-7.5 7.5z"/><path d="m352.244 398.057c0-4.142-3.358-7.5-7.5-7.5h-44.288c-4.142 0-7.5 3.358-7.5 7.5s3.358 7.5 7.5 7.5h44.288c4.142 0 7.5-3.358 7.5-7.5z"/><path d="m338.485 418.951h-38.028c-4.142 0-7.5 3.358-7.5 7.5s3.358 7.5 7.5 7.5h38.028c4.142 0 7.5-3.358 7.5-7.5s-3.358-7.5-7.5-7.5z"/><path d="m121.413 340.537h44.288c4.142 0 7.5-3.358 7.5-7.5s-3.358-7.5-7.5-7.5h-44.288c-4.142 0-7.5 3.358-7.5 7.5s3.358 7.5 7.5 7.5z"/><path d="m121.413 368.93h44.288c4.142 0 7.5-3.358 7.5-7.5s-3.358-7.5-7.5-7.5h-44.288c-4.142 0-7.5 3.358-7.5 7.5s3.358 7.5 7.5 7.5z"/><path d="m121.413 397.324h44.288c4.142 0 7.5-3.358 7.5-7.5s-3.358-7.5-7.5-7.5h-44.288c-4.142 0-7.5 3.358-7.5 7.5s3.358 7.5 7.5 7.5z"/><path d="m121.413 425.718h44.288c4.142 0 7.5-3.358 7.5-7.5s-3.358-7.5-7.5-7.5h-44.288c-4.142 0-7.5 3.358-7.5 7.5s3.358 7.5 7.5 7.5z"/></g></svg>